<svg width="512" height="512" viewBox="0 0 512 512" fill="none" xmlns="http://www.w3.org/2000/svg">
  <rect width="512" height="512" rx="128" fill="#2563eb"/>
  <path d="M256 128c-70.7 0-128 57.3-128 128s57.3 128 128 128 128-57.3 128-128-57.3-128-128-128zm0 192c-35.3 0-64-28.7-64-64s28.7-64 64-64 64 28.7 64 64-28.7 64-64 64z" fill="white"/>
  <path d="M320 224h32v64h-32zM160 224h32v64h-32z" fill="white"/>
  <circle cx="256" cy="256" r="24" fill="#2563eb"/>
  <path d="M256 200l-16 16h32l-16-16zM256 312l16-16h-32l16 16z" fill="white"/>
</svg>
